<svg xmlns="http://www.w3.org/2000/svg" viewBox="0 0 442 442"><defs><style>.cls-1,.cls-2{fill:#e48900;}.cls-2{stroke:#000;stroke-miterlimit:10;}</style></defs><title>Asset 2</title><g id="Layer_2" data-name="Layer 2"><g id="Layer_1-2" data-name="Layer 1"><path class="cls-1" d="M221,1A219.93,219.93,0,0,1,376.56,376.56,220,220,0,1,1,135.37,18.29,218.63,218.63,0,0,1,221,1m0-1C99,0,0,99,0,221S99,442,221,442s221-98.95,221-221S343.05,0,221,0Z"/><polygon class="cls-2" points="160.5 11.5 431.5 221.5 160.5 430.5 300.5 220.5 160.5 11.5"/><polygon class="cls-2" points="160.5 41.5 279.5 220.5 160.5 402.5 220.5 220.5 160.5 41.5"/></g></g></svg>